# Blender v2.93.1 OBJ File: 'controller.blend'
# www.blender.org
mtllib controller.mtl
o Cube.002_Cube.004
v -0.122700 0.021995 0.023506
v -0.117258 0.089760 0.025438
v -0.105112 0.023570 -0.081264
v -0.099671 0.091335 -0.079332
v 0.125986 0.024272 0.024146
v 0.119382 0.091959 0.023717
v 0.102989 0.021371 -0.079543
v 0.096384 0.089059 -0.079971
v 0.066711 0.022660 -0.081037
v 0.022237 0.022660 -0.081037
v -0.022237 0.022660 -0.081037
v -0.066711 0.022660 -0.081037
v -0.066711 0.090670 -0.081037
v -0.022237 0.090670 -0.081037
v 0.022237 0.090670 -0.081037
v 0.066711 0.090670 -0.081037
v -0.066711 0.052197 0.025211
v -0.022237 0.052197 0.006323
v 0.022237 0.052197 0.006323
v 0.066711 0.052197 0.025211
v 0.066711 0.092668 0.025211
v 0.022237 0.092668 0.006323
v -0.022237 0.092668 0.006323
v -0.066711 0.092668 0.025211
v -0.117536 0.010981 0.091395
v -0.117536 0.057392 0.091395
v 0.122962 0.056766 0.091395
v 0.122962 0.011607 0.091395
v 0.093431 0.011607 0.091395
v -0.087187 0.057392 0.091395
v -0.087187 0.010981 0.091395
v 0.093431 0.056766 0.091395
vt 0.375000 0.000000
vt 0.625000 0.000000
vt 0.625000 0.250000
vt 0.375000 0.250000
vt 0.375000 0.450000
vt 0.625000 0.450000
vt 0.625000 0.500000
vt 0.375000 0.500000
vt 0.625000 0.750000
vt 0.375000 0.750000
vt 0.375000 0.000000
vt 0.625000 0.000000
vt 0.325000 0.500000
vt 0.325000 0.750000
vt 0.825000 0.500000
vt 0.875000 0.500000
vt 0.875000 0.750000
vt 0.825000 0.750000
vt 0.675000 0.500000
vt 0.675000 0.750000
vt 0.725000 0.500000
vt 0.725000 0.750000
vt 0.775000 0.500000
vt 0.775000 0.750000
vt 0.125000 0.500000
vt 0.175000 0.500000
vt 0.175000 0.750000
vt 0.125000 0.750000
vt 0.225000 0.500000
vt 0.225000 0.750000
vt 0.275000 0.500000
vt 0.275000 0.750000
vt 0.625000 0.800000
vt 0.375000 0.800000
vt 0.375000 0.800000
vt 0.625000 0.800000
vt 0.625000 0.850000
vt 0.375000 0.850000
vt 0.625000 0.900000
vt 0.375000 0.900000
vt 0.625000 0.950000
vt 0.375000 0.950000
vt 0.625000 0.300000
vt 0.375000 0.300000
vt 0.625000 0.350000
vt 0.375000 0.350000
vt 0.625000 0.400000
vt 0.375000 0.400000
vt 0.375000 0.950000
vt 0.625000 0.950000
vt 0.625000 1.000000
vt 0.375000 1.000000
vt 0.375000 0.750000
vt 0.625000 0.750000
vt 0.325000 0.750000
vt 0.675000 0.750000
vt 0.875000 0.750000
vt 0.825000 0.750000
vt 0.175000 0.750000
vt 0.125000 0.750000
vn -0.9830 0.0836 -0.1637
vn 0.0387 -0.0013 -0.9992
vn 0.9715 0.0934 -0.2181
vn -0.9976 0.0467 0.0515
vn -0.2885 -0.9410 0.1770
vn -0.0270 0.9996 -0.0042
vn 0.0280 0.9993 -0.0264
vn 0.0044 0.9998 -0.0206
vn 0.0000 0.9997 -0.0229
vn -0.0044 0.9998 -0.0206
vn 0.2903 -0.9452 0.1494
vn 0.0619 -0.9546 0.2913
vn 0.0000 -0.9473 0.3203
vn -0.0619 -0.9546 0.2913
vn -0.9273 0.0000 0.3744
vn -0.3909 0.0000 0.9204
vn 0.0000 0.0000 1.0000
vn 0.3909 0.0000 0.9204
vn -0.0204 0.0150 -0.9997
vn 0.0000 0.0000 -1.0000
vn -0.2886 -0.9058 -0.3103
vn 0.9553 0.0000 0.2956
vn 0.0161 0.8846 0.4662
vn -0.0308 0.8917 0.4516
vn 0.3192 -0.8948 -0.3121
vn 0.9981 0.0585 0.0166
usemtl Material.001
s off
f 1/1/1 2/2/1 4/3/1 3/4/1
f 9/5/2 16/6/2 8/7/2 7/8/2
f 7/8/3 8/7/3 6/9/3 5/10/3
f 2/2/4 1/1/4 25/11/4 26/12/4
f 9/13/5 7/8/5 5/10/5 20/14/5
f 13/15/6 4/16/6 2/17/6 24/18/6
f 8/7/7 16/19/7 21/20/7 6/9/7
f 16/19/8 15/21/8 22/22/8 21/20/8
f 15/21/9 14/23/9 23/24/9 22/22/9
f 14/23/10 13/15/10 24/18/10 23/24/10
f 3/25/11 12/26/11 17/27/11 1/28/11
f 12/26/12 11/29/12 18/30/12 17/27/12
f 11/29/13 10/31/13 19/32/13 18/30/13
f 10/31/14 9/13/14 20/14/14 19/32/14
f 21/33/15 20/34/15 29/35/15 32/36/15
f 20/34/16 21/33/16 22/37/16 19/38/16
f 19/38/17 22/37/17 23/39/17 18/40/17
f 18/40/18 23/39/18 24/41/18 17/42/18
f 3/4/19 4/3/19 13/43/19 12/44/19
f 12/44/20 13/43/20 14/45/20 11/46/20
f 11/46/20 14/45/20 15/47/20 10/48/20
f 10/48/20 15/47/20 16/6/20 9/5/20
f 31/49/17 30/50/17 26/51/17 25/52/17
f 28/53/17 27/54/17 32/36/17 29/35/17
f 20/14/21 5/10/21 28/53/21 29/55/21
f 17/42/22 24/41/22 30/50/22 31/49/22
f 6/9/23 21/20/23 32/56/23 27/54/23
f 24/18/24 2/17/24 26/57/24 30/58/24
f 1/28/25 17/27/25 31/59/25 25/60/25
f 5/10/26 6/9/26 27/54/26 28/53/26
