# Blender v2.93.1 OBJ File: 'Switch.blend'
# www.blender.org
mtllib Switch.mtl
o Cube_Cube.001
v -0.197925 0.005797 0.054832
v -0.197925 0.005797 -0.054832
v -0.197925 0.236854 -0.054832
v 0.197925 0.005797 0.054832
v 0.197925 0.005797 -0.054832
v 0.197925 0.236854 -0.054832
v -0.197925 0.005797 -0.009273
v -0.197925 0.005797 0.027282
v -0.197925 0.236854 -0.009273
v 0.197925 0.005797 0.027282
v 0.197925 0.005797 -0.009273
v 0.197925 0.236854 -0.009273
v -0.197925 0.054443 0.027282
v -0.197925 0.054443 -0.009273
v 0.197925 0.054443 -0.009273
v 0.197925 0.054443 0.027282
v -0.182773 0.236854 0.050634
v -0.197925 0.228011 0.054832
v 0.182773 0.236854 0.050634
v 0.197925 0.228011 0.054832
v -0.182773 0.236854 0.031479
v -0.197925 0.228011 0.027282
v 0.182773 0.236854 0.031479
v 0.197925 0.228011 0.027282
vt 0.375000 0.146139
vt 0.625000 0.146139
vt 0.625000 0.250000
vt 0.375000 0.250000
vt 0.625000 0.500000
vt 0.375000 0.500000
vt 0.875000 0.687194
vt 0.625000 0.687194
vt 0.625000 0.687194
vt 0.875000 0.687194
vt 0.634569 0.696763
vt 0.865431 0.696763
vt 0.865431 0.740431
vt 0.634569 0.740431
vt 0.125000 0.687194
vt 0.375000 0.687194
vt 0.375000 0.750000
vt 0.125000 0.750000
vt 0.615431 0.687194
vt 0.615431 0.750000
vt 0.875000 0.500000
vt 0.875000 0.603861
vt 0.625000 0.603861
vt 0.875000 0.603861
vt 0.625000 0.603861
vt 0.125000 0.500000
vt 0.375000 0.603861
vt 0.125000 0.603861
vt 0.615431 1.000000
vt 0.375000 1.000000
vt 0.875000 0.750000
vt 0.625000 0.750000
vt 0.375000 0.000000
vt 0.615431 0.000000
vt 0.615431 0.062806
vt 0.375000 0.062806
vn -1.0000 0.0000 0.0000
vn 0.0000 0.0000 -1.0000
vn 0.0000 1.0000 0.0000
vn 0.0000 -1.0000 0.0000
vn 1.0000 0.0000 0.0000
vn 0.0000 0.0000 1.0000
vn 0.5041 0.8636 0.0000
vn 0.0000 0.4288 0.9034
vn -0.5041 0.8636 0.0000
vn 0.0000 0.4288 -0.9034
usemtl Material.001
s off
f 7/1/1 9/2/1 3/3/1 2/4/1
f 2/4/2 3/3/2 6/5/2 5/6/2
f 22/7/2 24/8/2 16/9/2 13/10/2
f 23/11/3 21/12/3 17/13/3 19/14/3
f 8/15/4 10/16/4 4/17/4 1/18/4
f 10/16/5 24/19/5 20/20/5 4/17/5
f 6/5/3 3/21/3 9/22/3 12/23/3
f 12/23/6 9/22/6 14/24/6 15/25/6
f 2/26/4 5/6/4 11/27/4 7/28/4
f 7/28/4 11/27/4 10/16/4 8/15/4
f 5/6/5 6/5/5 12/23/5 11/27/5
f 4/17/6 20/20/6 18/29/6 1/30/6
f 15/25/3 14/24/3 13/10/3 16/9/3
f 10/16/5 11/27/5 15/25/5 16/9/5
f 7/28/1 8/15/1 13/10/1 14/24/1
f 23/11/7 19/14/7 20/20/7 24/19/7
f 19/14/8 17/13/8 18/31/8 20/32/8
f 17/13/9 21/12/9 22/7/9 18/31/9
f 21/12/10 23/11/10 24/8/10 22/7/10
f 1/33/1 18/34/1 22/35/1 8/36/1
o Cube.001_Cube.002
v -0.181702 0.069359 0.025271
v -0.181702 0.247203 0.025271
v -0.203109 0.058882 -0.007605
v -0.203109 0.257679 -0.007605
v 0.181702 0.069359 0.025271
v 0.181702 0.247203 0.025271
v 0.203109 0.058882 -0.007605
v 0.203109 0.257679 -0.007605
v -0.263537 0.072923 0.022949
v -0.234846 0.058882 0.025271
v -0.234846 0.257679 0.025271
v -0.263537 0.243638 0.022949
v -0.234846 0.257679 -0.007605
v -0.263537 0.243638 -0.005283
v -0.234846 0.058882 -0.007605
v -0.263537 0.072923 -0.005283
v 0.263537 0.072923 -0.005283
v 0.234846 0.058882 -0.007605
v 0.234846 0.257679 -0.007605
v 0.263537 0.243638 -0.005283
v 0.234846 0.257679 0.025271
v 0.263537 0.243638 0.022949
v 0.234846 0.058882 0.025271
v 0.263537 0.072923 0.022949
v -0.203109 0.058882 0.025271
v -0.203109 0.257679 0.025271
v 0.203109 0.257679 0.025271
v 0.203109 0.058882 0.025271
vt 0.375000 0.250000
vt 0.625000 0.250000
vt 0.625000 0.500000
vt 0.375000 0.500000
vt 0.125000 0.500000
vt 0.375000 0.750000
vt 0.125000 0.750000
vt 0.875000 0.500000
vt 0.875000 0.750000
vt 0.625000 0.750000
vt 0.388175 0.986825
vt 0.611825 0.986825
vt 0.625000 1.000000
vt 0.375000 1.000000
vt 0.611825 0.763175
vt 0.388175 0.763175
vt 0.375000 0.000000
vt 0.375000 0.000000
vt 0.375000 0.250000
vt 0.392657 0.017657
vt 0.607343 0.017657
vt 0.607343 0.232343
vt 0.392657 0.232343
vt 0.625000 0.250000
vt 0.625000 0.000000
vt 0.625000 0.000000
vt 0.625000 0.500000
vt 0.375000 0.500000
vt 0.375000 0.750000
vt 0.392657 0.517657
vt 0.607343 0.517657
vt 0.607343 0.732343
vt 0.392657 0.732343
vt 0.625000 0.750000
vn 0.0000 0.0000 -1.0000
vn 0.0000 -1.0000 0.0000
vn 0.0000 1.0000 0.0000
vn 0.0000 0.0000 1.0000
vn -1.0000 0.0000 0.0000
vn -0.0807 0.0000 0.9967
vn -0.4396 0.8982 0.0000
vn -0.0807 0.0000 -0.9967
vn -0.4396 -0.8982 0.0000
vn 1.0000 0.0000 0.0000
vn 0.0807 0.0000 -0.9967
vn 0.4396 0.8982 0.0000
vn 0.0807 0.0000 0.9967
vn 0.4396 -0.8982 0.0000
usemtl Material.003
s off
f 27/37/11 28/38/11 32/39/11 31/40/11
f 27/41/12 31/40/12 52/42/12 49/43/12
f 32/39/13 28/44/13 50/45/13 51/46/13
f 25/47/14 26/48/14 50/49/14 49/50/14
f 30/51/14 29/52/14 52/42/14 51/46/14
f 29/52/14 25/47/14 49/50/14 52/42/14
f 26/48/14 30/51/14 51/46/14 50/49/14
usemtl Material.005
f 49/53/12 34/54/12 39/55/12 27/37/12
f 33/56/15 36/57/15 38/58/15 40/59/15
f 27/37/11 39/55/11 37/60/11 28/38/11
f 28/38/13 37/60/13 35/61/13 50/62/13
f 36/57/16 33/56/16 34/54/16 35/61/16
f 38/58/17 36/57/17 35/61/17 37/60/17
f 40/59/18 38/58/18 37/60/18 39/55/18
f 33/56/19 40/59/19 39/55/19 34/54/19
f 50/62/14 35/61/14 34/54/14 49/53/14
usemtl Material.006
f 32/39/11 43/63/11 42/64/11 31/40/11
f 31/40/12 42/64/12 47/65/12 52/42/12
f 41/66/20 44/67/20 46/68/20 48/69/20
f 52/42/14 47/65/14 45/70/14 51/46/14
f 51/46/13 45/70/13 43/63/13 32/39/13
f 44/67/21 41/66/21 42/64/21 43/63/21
f 46/68/22 44/67/22 43/63/22 45/70/22
f 48/69/23 46/68/23 45/70/23 47/65/23
f 41/66/24 48/69/24 47/65/24 42/64/24
usemtl Material.007
f 29/52/14 30/51/14 26/48/14 25/47/14
