# Blender v2.93.1 OBJ File: 'switchGames.blend'
# www.blender.org
mtllib switchGames.mtl
o Cube.001_Cube.002
v -0.130976 0.021993 0.451117
v -0.130976 0.023107 0.429380
v -0.130976 -0.021993 0.451117
v -0.130976 -0.023107 0.429380
v -0.130976 0.021993 -0.451117
v -0.130976 0.023107 -0.429380
v -0.130976 -0.021993 -0.451117
v -0.130976 -0.023107 -0.429380
v -0.232635 -0.023107 0.429380
v -0.232635 -0.021993 0.451117
v -0.244412 -0.021993 0.429380
v -0.232635 0.021993 0.451117
v -0.232635 0.023107 0.429380
v -0.244412 0.021993 0.429380
v -0.232635 -0.023107 -0.429380
v -0.244412 -0.021993 -0.429380
v -0.232635 -0.021993 -0.451117
v -0.232635 0.023107 -0.429380
v -0.232635 0.021993 -0.451117
v -0.244412 0.021993 -0.429380
v 0.232635 -0.023107 0.429380
v 0.244412 -0.021993 0.429380
v 0.232635 -0.021993 0.451117
v 0.232635 0.023107 0.429380
v 0.232635 0.021993 0.451117
v 0.244412 0.021993 0.429380
v 0.232635 -0.023107 -0.429380
v 0.232635 -0.021993 -0.451117
v 0.244412 -0.021993 -0.429380
v 0.232635 0.023107 -0.429380
v 0.244412 0.021993 -0.429380
v 0.232635 0.021993 -0.451117
v -0.130976 -0.023107 -0.318537
v -0.232635 -0.023107 -0.318537
v -0.244412 -0.021993 -0.318537
v -0.232635 0.023107 -0.318537
v -0.244412 0.021993 -0.318537
v 0.232635 -0.023107 -0.318537
v 0.244412 -0.021993 -0.318537
v 0.232635 0.023107 -0.318537
v 0.244412 0.021993 -0.318537
v -0.130976 0.023107 -0.318537
v 0.111431 0.023107 0.429380
v -0.009773 0.023107 0.429380
v 0.111431 -0.021993 0.451117
v -0.009773 -0.021993 0.451117
v 0.111431 -0.023107 -0.429380
v -0.009773 -0.023107 -0.429380
v 0.111431 0.021993 -0.451117
v -0.009773 0.021993 -0.451117
v -0.009773 -0.021993 -0.451117
v 0.111431 -0.021993 -0.451117
v -0.009773 0.023107 -0.429380
v 0.111431 0.023107 -0.429380
v -0.009773 -0.023107 0.429380
v 0.111431 -0.023107 0.429380
v -0.009773 0.021993 0.451117
v 0.111431 0.021993 0.451117
v -0.009773 0.023107 -0.318537
v 0.111431 0.023107 -0.318537
v 0.111431 -0.023107 -0.318537
v -0.009773 -0.023107 -0.318537
vt 0.381023 0.213263
vt 0.618977 0.213263
vt 0.618977 0.243977
vt 0.381023 0.243977
vt 0.131023 0.743977
vt 0.131023 0.750000
vt 0.125000 0.743977
vt 0.618977 0.993977
vt 0.625000 0.993977
vt 0.618977 1.000000
vt 0.131023 0.506023
vt 0.125000 0.506023
vt 0.131023 0.500000
vt 0.625000 0.256023
vt 0.625000 0.256023
vt 0.618977 0.250000
vt 0.131023 0.536737
vt 0.125000 0.536737
vt 0.381023 0.000000
vt 0.618977 0.000000
vt 0.618977 0.006023
vt 0.381023 0.006023
vt 0.625000 0.213263
vt 0.625000 0.243977
vt 0.618977 0.256023
vt 0.381023 0.256023
vt 0.183015 0.506023
vt 0.183015 0.500000
vt 0.625000 0.308015
vt 0.618977 0.308015
vt 0.381023 0.308015
vt 0.625000 0.006023
vt 0.816985 0.506023
vt 0.868977 0.506023
vt 0.868977 0.536736
vt 0.816985 0.536736
vt 0.183015 0.536736
vt 0.381023 0.941985
vt 0.618977 0.941985
vt 0.381023 0.993977
vt 0.381023 0.536737
vt 0.618977 0.536736
vt 0.618977 0.743977
vt 0.381023 0.743977
vt 0.183015 0.743977
vt 0.868977 0.743977
vt 0.816985 0.743977
vt 0.381023 0.431989
vt 0.618977 0.431989
vt 0.618977 0.493977
vt 0.381023 0.493977
vt 0.368977 0.743977
vt 0.375000 0.743977
vt 0.368977 0.750000
vt 0.625000 0.756023
vt 0.625000 0.756023
vt 0.618977 0.750000
vt 0.368977 0.506023
vt 0.368977 0.500000
vt 0.375000 0.506023
vt 0.625000 0.506023
vt 0.625000 0.506023
vt 0.618977 0.500000
vt 0.625000 0.431989
vt 0.625000 0.493977
vt 0.618977 0.506023
vt 0.381023 0.506023
vt 0.368977 0.536736
vt 0.631023 0.536737
vt 0.631023 0.743977
vt 0.618977 0.756023
vt 0.381023 0.756023
vt 0.306989 0.743977
vt 0.306989 0.750000
vt 0.625000 0.941985
vt 0.306989 0.536736
vt 0.625000 0.879998
vt 0.618977 0.879998
vt 0.183015 0.750000
vt 0.245002 0.506023
vt 0.245002 0.500000
vt 0.381023 0.879998
vt 0.754998 0.506023
vt 0.754998 0.536736
vt 0.306989 0.506023
vt 0.631023 0.506023
vt 0.245002 0.536736
vt 0.693011 0.506023
vt 0.693011 0.536736
vt 0.618977 0.818011
vt 0.381023 0.818011
vt 0.306989 0.500000
vt 0.625000 0.818011
vt 0.245002 0.743977
vt 0.245002 0.750000
vt 0.625000 0.370002
vt 0.618977 0.370002
vt 0.381023 0.370002
vt 0.754998 0.743977
vt 0.693011 0.743977
vn -1.0000 0.0000 0.0000
vn -0.0940 -0.9943 0.0509
vn -0.0940 0.9943 0.0509
vn -0.0940 -0.9943 -0.0509
vn -0.0940 0.9943 -0.0509
vn -0.0941 -0.9956 0.0000
vn -0.8792 0.0000 0.4764
vn -0.0941 0.9956 0.0000
vn -0.8792 0.0000 -0.4764
vn 0.0000 -0.9987 -0.0512
vn 0.0000 0.9987 -0.0512
vn 0.0000 0.0000 -1.0000
vn 0.0000 1.0000 0.0000
vn 0.0000 -1.0000 0.0000
vn 0.0000 0.0000 1.0000
vn 1.0000 0.0000 0.0000
vn 0.0940 -0.9943 0.0509
vn 0.0940 0.9943 0.0509
vn 0.0940 -0.9943 -0.0509
vn 0.0940 0.9943 -0.0509
vn 0.8792 0.0000 -0.4764
vn 0.0941 -0.9956 0.0000
vn 0.0941 0.9956 0.0000
vn 0.8792 0.0000 0.4764
vn 0.0000 -0.9987 0.0512
vn 0.0000 0.9987 0.0512
usemtl Material.001
s off
f 35/1/1 37/2/1 20/3/1 16/4/1
f 9/5/2 10/6/2 11/7/2
f 12/8/3 13/9/3 14/10/3
f 15/11/4 16/12/4 17/13/4
f 18/14/5 19/15/5 20/16/5
f 34/17/6 9/5/6 11/7/6 35/18/6
f 10/19/7 12/20/7 14/21/7 11/22/7
f 36/23/8 18/24/8 20/3/8 37/2/8
f 19/25/9 17/26/9 16/4/9 20/3/9
f 8/27/10 15/11/10 17/13/10 7/28/10
f 18/14/11 6/29/11 5/30/11 19/25/11
f 17/26/12 19/25/12 5/30/12 7/31/12
f 13/32/8 36/23/8 37/2/8 14/21/8
f 15/11/6 34/17/6 35/18/6 16/12/6
f 11/22/1 14/21/1 37/2/1 35/1/1
f 6/33/13 18/34/13 36/35/13 42/36/13
f 15/11/14 8/27/14 33/37/14 34/17/14
usemtl Material
f 3/38/15 1/39/15 12/8/15 10/40/15
f 39/41/16 41/42/16 26/43/16 22/44/16
f 34/17/14 33/37/14 4/45/14 9/5/14
f 42/36/13 36/35/13 13/46/13 2/47/13
f 52/48/12 49/49/12 32/50/12 28/51/12
f 21/52/17 22/53/17 23/54/17
f 24/55/18 25/56/18 26/57/18
f 27/58/19 28/59/19 29/60/19
f 30/61/20 31/62/20 32/63/20
f 54/64/11 30/65/11 32/50/11 49/49/11
f 31/66/21 29/67/21 28/51/21 32/50/21
f 38/68/22 27/58/22 29/67/22 39/41/22
f 40/69/23 24/70/23 26/43/23 41/42/23
f 25/71/24 23/72/24 22/44/24 26/43/24
f 56/73/25 21/52/25 23/54/25 45/74/25
f 2/75/26 13/9/26 12/8/26 1/39/26
f 61/76/14 38/68/14 21/52/14 56/73/14
f 44/77/26 2/75/26 1/39/26 57/78/26
f 9/5/25 4/45/25 3/79/25 10/6/25
f 48/80/10 8/27/10 7/28/10 51/81/10
f 46/82/15 57/78/15 1/39/15 3/38/15
f 53/83/13 6/33/13 42/36/13 59/84/13
f 47/85/14 27/58/14 38/68/14 61/76/14
f 30/86/23 40/69/23 41/42/23 31/66/23
f 21/52/22 38/68/22 39/41/22 22/44/22
f 29/67/16 31/66/16 41/42/16 39/41/16
f 8/27/14 48/80/14 62/87/14 33/37/14
f 48/80/14 47/85/14 61/76/14 62/87/14
f 30/86/13 54/88/13 60/89/13 40/69/13
f 54/88/13 53/83/13 59/84/13 60/89/13
f 23/72/15 25/71/15 58/90/15 45/91/15
f 45/91/15 58/90/15 57/78/15 46/82/15
f 27/58/10 47/85/10 52/92/10 28/59/10
f 47/85/10 48/80/10 51/81/10 52/92/10
f 24/55/26 43/93/26 58/90/26 25/71/26
f 43/93/26 44/77/26 57/78/26 58/90/26
f 33/37/14 62/87/14 55/94/14 4/45/14
f 62/87/14 61/76/14 56/73/14 55/94/14
f 4/45/25 55/94/25 46/95/25 3/79/25
f 55/94/25 56/73/25 45/74/25 46/95/25
f 6/29/11 53/96/11 50/97/11 5/30/11
f 53/96/11 54/64/11 49/49/11 50/97/11
f 7/31/12 5/30/12 50/97/12 51/98/12
f 51/98/12 50/97/12 49/49/12 52/48/12
usemtl Material.005
f 59/84/13 42/36/13 2/47/13 44/99/13
usemtl Material.006
f 60/89/13 59/84/13 44/99/13 43/100/13
usemtl Material.007
f 40/69/13 60/89/13 43/100/13 24/70/13
o Cube.002_Cube.003
v 0.152940 0.076481 0.433555
v 0.155645 0.077578 0.411986
v 0.145569 0.033125 0.432696
v 0.147901 0.032027 0.411083
v 0.257453 0.076481 -0.462605
v 0.255122 0.077578 -0.440992
v 0.250082 0.033125 -0.463464
v 0.247378 0.032027 -0.441895
v 0.048374 0.049178 0.399476
v 0.046043 0.050276 0.421089
v 0.037030 0.052263 0.398153
v 0.053414 0.093632 0.421948
v 0.056118 0.094729 0.400379
v 0.044401 0.095619 0.399013
v 0.147851 0.049178 -0.453502
v 0.136507 0.052263 -0.454825
v 0.150555 0.050276 -0.475072
v 0.155595 0.094729 -0.452599
v 0.157926 0.093632 -0.474212
v 0.143878 0.095619 -0.453966
v 0.503887 -0.029318 0.452599
v 0.515603 -0.030208 0.453966
v 0.501555 -0.028221 0.474212
v 0.511631 0.016233 0.453502
v 0.508926 0.015136 0.475072
v 0.522974 0.013149 0.454825
v 0.603364 -0.029318 -0.400379
v 0.606068 -0.028221 -0.421948
v 0.615080 -0.030208 -0.399013
v 0.611108 0.016233 -0.399476
v 0.622451 0.013149 -0.398153
v 0.613439 0.015136 -0.421089
v 0.234538 0.032027 -0.331799
v 0.135011 0.049178 -0.343406
v 0.123667 0.052263 -0.344729
v 0.142755 0.094729 -0.342503
v 0.131039 0.095619 -0.343869
v 0.590524 -0.029318 -0.290283
v 0.602240 -0.030208 -0.288916
v 0.598268 0.016233 -0.289380
v 0.609612 0.013149 -0.288057
v 0.242282 0.077578 -0.330896
v 0.194853 0.032027 0.008484
v 0.095326 0.049178 -0.003123
v 0.091354 0.095619 -0.003586
v 0.562556 -0.030208 0.051367
v 0.558583 0.016233 0.050904
v 0.202597 0.077578 0.009388
v 0.083983 0.052263 -0.004446
v 0.103070 0.094729 -0.002220
v 0.550839 -0.029318 0.050001
v 0.569927 0.013149 0.052227
vt 0.381023 0.213263
vt 0.618977 0.213263
vt 0.618977 0.243977
vt 0.381023 0.243977
vt 0.131023 0.743977
vt 0.131023 0.750000
vt 0.125000 0.743977
vt 0.618977 0.993977
vt 0.625000 0.993977
vt 0.618977 1.000000
vt 0.131023 0.506023
vt 0.125000 0.506023
vt 0.131023 0.500000
vt 0.625000 0.256023
vt 0.625000 0.256023
vt 0.618977 0.250000
vt 0.131023 0.631665
vt 0.125000 0.631665
vt 0.381023 0.000000
vt 0.618977 0.000000
vt 0.618977 0.006023
vt 0.381023 0.006023
vt 0.625000 0.213263
vt 0.625000 0.243977
vt 0.618977 0.256023
vt 0.381023 0.256023
vt 0.183015 0.506023
vt 0.183015 0.500000
vt 0.625000 0.308015
vt 0.618977 0.308015
vt 0.381023 0.308015
vt 0.625000 0.118335
vt 0.618977 0.118335
vt 0.131023 0.536737
vt 0.125000 0.536737
vt 0.381023 0.118335
vt 0.816985 0.506023
vt 0.868977 0.506023
vt 0.868977 0.536736
vt 0.816985 0.536736
vt 0.183015 0.536736
vt 0.625000 0.006023
vt 0.381023 0.941985
vt 0.618977 0.941985
vt 0.381023 0.993977
vt 0.381023 0.631665
vt 0.618977 0.631665
vt 0.618977 0.743977
vt 0.381023 0.743977
vt 0.183015 0.631665
vt 0.183015 0.743977
vt 0.816985 0.631665
vt 0.868977 0.631665
vt 0.868977 0.743977
vt 0.816985 0.743977
vt 0.618977 0.493977
vt 0.381023 0.493977
vt 0.368977 0.743977
vt 0.375000 0.743977
vt 0.368977 0.750000
vt 0.625000 0.756023
vt 0.625000 0.756023
vt 0.618977 0.750000
vt 0.368977 0.506023
vt 0.368977 0.500000
vt 0.375000 0.506023
vt 0.625000 0.506023
vt 0.625000 0.506023
vt 0.618977 0.500000
vt 0.625000 0.493977
vt 0.618977 0.506023
vt 0.381023 0.506023
vt 0.368977 0.536736
vt 0.381023 0.536737
vt 0.631023 0.631665
vt 0.631023 0.743977
vt 0.618977 0.756023
vt 0.381023 0.756023
vt 0.183015 0.750000
vt 0.625000 0.941985
vt 0.368977 0.631665
vt 0.631023 0.506023
vt 0.631023 0.536737
vt 0.618977 0.536736
vn -0.9790 0.1687 -0.1142
vn -0.2645 -0.9642 0.0204
vn 0.0687 0.9959 0.0593
vn -0.2527 -0.9642 -0.0807
vn 0.0805 0.9959 -0.0419
vn -0.2590 -0.9654 -0.0302
vn -0.9160 0.1483 0.3728
vn 0.0747 0.9972 0.0087
vn -0.8056 0.1483 -0.5736
vn -0.1614 -0.9844 -0.0703
vn 0.1733 0.9844 -0.0313
vn 0.1158 -0.0000 -0.9933
vn 0.1676 0.9857 0.0195
vn -0.1676 -0.9857 -0.0195
vn -0.1158 0.0000 0.9933
vn 0.9790 -0.1687 0.1142
vn -0.0805 -0.9959 0.0419
vn 0.2527 0.9642 0.0807
vn -0.0687 -0.9959 -0.0593
vn 0.2645 0.9642 -0.0204
vn 0.9160 -0.1483 -0.3728
vn -0.0747 -0.9972 -0.0087
vn 0.2590 0.9654 0.0302
vn 0.8056 -0.1483 0.5736
vn -0.1733 -0.9844 0.0313
vn 0.1614 0.9844 0.0703
usemtl Material.001
s off
f 97/101/27 99/102/27 82/103/27 78/104/27
f 71/105/28 72/106/28 73/107/28
f 74/108/29 75/109/29 76/110/29
f 77/111/30 78/112/30 79/113/30
f 80/114/31 81/115/31 82/116/31
f 106/117/32 71/105/32 73/107/32 111/118/32
f 72/119/33 74/120/33 76/121/33 73/122/33
f 98/123/34 80/124/34 82/103/34 99/102/34
f 81/125/35 79/126/35 78/104/35 82/103/35
f 70/127/36 77/111/36 79/113/36 69/128/36
f 80/114/37 68/129/37 67/130/37 81/125/37
f 79/126/38 81/125/38 67/130/38 69/131/38
f 112/132/34 98/123/34 99/102/34 107/133/34
f 77/111/32 96/134/32 97/135/32 78/112/32
f 111/136/27 107/133/27 99/102/27 97/101/27
f 68/137/39 80/138/39 98/139/39 104/140/39
f 77/111/40 70/127/40 95/141/40 96/134/40
f 73/122/27 76/121/27 107/133/27 111/136/27
f 75/142/34 112/132/34 107/133/34 76/121/34
f 96/134/32 106/117/32 111/118/32 97/135/32
usemtl Material
f 65/143/41 63/144/41 74/108/41 72/145/41
f 108/146/42 114/147/42 88/148/42 84/149/42
f 106/117/40 105/150/40 66/151/40 71/105/40
f 110/152/39 112/153/39 75/154/39 64/155/39
f 69/131/38 67/130/38 94/156/38 90/157/38
f 83/158/43 84/159/43 85/160/43
f 86/161/44 87/162/44 88/163/44
f 89/164/45 90/165/45 91/166/45
f 92/167/46 93/168/46 94/169/46
f 68/129/37 92/170/37 94/156/37 67/130/37
f 93/171/47 91/172/47 90/157/47 94/156/47
f 100/173/48 89/164/48 91/172/48 101/174/48
f 109/175/49 86/176/49 88/148/49 114/147/49
f 87/177/50 85/178/50 84/149/50 88/148/50
f 66/151/51 83/158/51 85/160/51 65/179/51
f 64/180/52 75/109/52 74/108/52 63/144/52
f 105/150/40 113/181/40 83/158/40 66/151/40
f 86/161/52 64/180/52 63/144/52 87/177/52
f 71/105/51 66/151/51 65/179/51 72/106/51
f 89/164/36 70/127/36 69/128/36 90/165/36
f 85/178/41 87/177/41 63/144/41 65/143/41
f 92/182/39 68/137/39 104/140/39 102/183/39
f 70/127/40 89/164/40 100/173/40 95/141/40
f 92/182/49 102/183/49 103/184/49 93/171/49
f 113/181/48 100/173/48 101/174/48 108/146/48
f 91/172/42 93/171/42 103/184/42 101/174/42
f 83/158/48 113/181/48 108/146/48 84/149/48
f 95/141/40 100/173/40 113/181/40 105/150/40
f 102/183/49 109/175/49 114/147/49 103/184/49
f 104/140/39 98/139/39 112/153/39 110/152/39
f 96/134/40 95/141/40 105/150/40 106/117/40
f 101/174/42 103/184/42 114/147/42 108/146/42
usemtl Material.002
f 102/183/39 104/140/39 110/152/39 109/175/39
usemtl Material.004
f 109/175/39 110/152/39 64/155/39 86/176/39
o Cube.003_Cube.004
v 0.245464 0.107976 0.413765
v 0.252051 0.109073 0.393049
v 0.238373 0.064619 0.411578
v 0.244601 0.063522 0.390751
v 0.511416 0.107976 -0.448381
v 0.505188 0.109073 -0.427554
v 0.504324 0.064619 -0.450568
v 0.497737 0.063522 -0.429852
v 0.148851 0.080673 0.361214
v 0.142623 0.081770 0.382041
v 0.137938 0.083757 0.357848
v 0.149715 0.125127 0.384229
v 0.156302 0.126224 0.363513
v 0.145030 0.127114 0.360036
v 0.401988 0.080673 -0.459389
v 0.391075 0.083757 -0.462755
v 0.408575 0.081770 -0.480105
v 0.409439 0.126224 -0.457091
v 0.415667 0.125127 -0.477917
v 0.398167 0.127114 -0.460568
v 0.587075 0.002177 0.496396
v 0.598347 0.001287 0.499873
v 0.580847 0.003274 0.517223
v 0.594525 0.047728 0.498694
v 0.587938 0.046630 0.519410
v 0.605438 0.044643 0.502061
v 0.840212 0.002177 -0.324207
v 0.846799 0.003274 -0.344923
v 0.851484 0.001287 -0.320730
v 0.847662 0.047728 -0.321909
v 0.858575 0.044643 -0.318542
v 0.853890 0.046630 -0.342736
v 0.465064 0.063522 -0.323935
v 0.369315 0.080673 -0.353471
v 0.358402 0.083757 -0.356838
v 0.376765 0.126224 -0.351173
v 0.365493 0.127114 -0.354650
v 0.807539 0.002177 -0.218289
v 0.818811 0.001287 -0.214812
v 0.814989 0.047728 -0.215991
v 0.825902 0.044643 -0.212625
v 0.472515 0.109073 -0.321636
v 0.292102 0.063522 0.236764
v 0.196353 0.080673 0.207228
v 0.192531 0.127114 0.206049
v 0.645848 0.001287 0.345887
v 0.642027 0.047728 0.344708
v 0.299552 0.109073 0.239062
v 0.185440 0.083757 0.203861
v 0.203803 0.126224 0.209526
v 0.634576 0.002177 0.342409
v 0.652940 0.044643 0.348074
vt 0.381023 0.213263
vt 0.618977 0.213263
vt 0.618977 0.243977
vt 0.381023 0.243977
vt 0.131023 0.743977
vt 0.131023 0.750000
vt 0.125000 0.743977
vt 0.618977 0.993977
vt 0.625000 0.993977
vt 0.618977 1.000000
vt 0.131023 0.506023
vt 0.125000 0.506023
vt 0.131023 0.500000
vt 0.625000 0.256023
vt 0.625000 0.256023
vt 0.618977 0.250000
vt 0.131023 0.699325
vt 0.125000 0.699325
vt 0.381023 0.000000
vt 0.618977 0.000000
vt 0.618977 0.006023
vt 0.381023 0.006023
vt 0.625000 0.213263
vt 0.625000 0.243977
vt 0.618977 0.256023
vt 0.381023 0.256023
vt 0.183015 0.506023
vt 0.183015 0.500000
vt 0.625000 0.308015
vt 0.618977 0.308015
vt 0.381023 0.308015
vt 0.631023 0.699325
vt 0.816985 0.699325
vt 0.816985 0.743977
vt 0.631023 0.743977
vt 0.625000 0.050675
vt 0.618977 0.050675
vt 0.131023 0.536737
vt 0.125000 0.536737
vt 0.381023 0.050675
vt 0.816985 0.506023
vt 0.868977 0.506023
vt 0.868977 0.536736
vt 0.816985 0.536736
vt 0.183015 0.536736
vt 0.625000 0.006023
vt 0.381023 0.941985
vt 0.618977 0.941985
vt 0.381023 0.993977
vt 0.381023 0.699325
vt 0.618977 0.699325
vt 0.618977 0.743977
vt 0.381023 0.743977
vt 0.183015 0.699325
vt 0.183015 0.743977
vt 0.868977 0.699325
vt 0.868977 0.743977
vt 0.618977 0.493977
vt 0.381023 0.493977
vt 0.368977 0.743977
vt 0.375000 0.743977
vt 0.368977 0.750000
vt 0.625000 0.756023
vt 0.625000 0.756023
vt 0.618977 0.750000
vt 0.368977 0.506023
vt 0.368977 0.500000
vt 0.375000 0.506023
vt 0.625000 0.506023
vt 0.625000 0.506023
vt 0.618977 0.500000
vt 0.625000 0.493977
vt 0.618977 0.506023
vt 0.381023 0.506023
vt 0.368977 0.536736
vt 0.381023 0.536737
vt 0.618977 0.756023
vt 0.381023 0.756023
vt 0.183015 0.750000
vt 0.625000 0.941985
vt 0.368977 0.699325
vt 0.631023 0.506023
vt 0.631023 0.536737
vt 0.618977 0.536736
vn -0.9419 0.1687 -0.2905
vn -0.2638 -0.9642 -0.0281
vn 0.0567 0.9959 0.0708
vn -0.2338 -0.9642 -0.1254
vn 0.0868 0.9959 -0.0265
vn -0.2491 -0.9654 -0.0769
vn -0.9686 0.1483 0.1997
vn 0.0718 0.9972 0.0222
vn -0.6877 0.1483 -0.7107
vn -0.1459 -0.9844 -0.0985
vn 0.1761 0.9844 0.0008
vn 0.2948 -0.0000 -0.9556
vn 0.1612 0.9857 0.0497
vn -0.2492 -0.9654 -0.0769
vn -0.1612 -0.9857 -0.0497
vn -0.2948 0.0000 0.9556
vn 0.9419 -0.1687 0.2905
vn -0.0868 -0.9959 0.0265
vn 0.2338 0.9642 0.1254
vn -0.0567 -0.9959 -0.0708
vn 0.2638 0.9642 0.0281
vn 0.9686 -0.1483 -0.1997
vn -0.0718 -0.9972 -0.0222
vn 0.2491 0.9654 0.0769
vn 0.6877 -0.1483 0.7107
vn -0.1761 -0.9844 -0.0008
vn 0.1459 0.9844 0.0985
vn 0.2492 0.9654 0.0769
usemtl Material.001
s off
f 149/185/53 151/186/53 134/187/53 130/188/53
f 123/189/54 124/190/54 125/191/54
f 126/192/55 127/193/55 128/194/55
f 129/195/56 130/196/56 131/197/56
f 132/198/57 133/199/57 134/200/57
f 158/201/58 123/189/58 125/191/58 163/202/58
f 124/203/59 126/204/59 128/205/59 125/206/59
f 150/207/60 132/208/60 134/187/60 151/186/60
f 133/209/61 131/210/61 130/188/61 134/187/61
f 122/211/62 129/195/62 131/197/62 121/212/62
f 132/198/63 120/213/63 119/214/63 133/209/63
f 131/210/64 133/209/64 119/214/64 121/215/64
f 161/216/65 162/217/65 116/218/65 138/219/65
f 164/220/60 150/207/60 151/186/60 159/221/60
f 129/195/66 148/222/66 149/223/66 130/196/66
f 163/224/53 159/221/53 151/186/53 149/185/53
f 120/225/65 132/226/65 150/227/65 156/228/65
f 129/195/67 122/211/67 147/229/67 148/222/67
f 125/206/53 128/205/53 159/221/53 163/224/53
f 127/230/60 164/220/60 159/221/60 128/205/60
f 148/222/66 158/201/66 163/202/66 149/223/66
usemtl Material
f 117/231/68 115/232/68 126/192/68 124/233/68
f 160/234/69 166/235/69 140/236/69 136/237/69
f 158/201/67 157/238/67 118/239/67 123/189/67
f 162/217/65 164/240/65 127/241/65 116/218/65
f 121/215/64 119/214/64 146/242/64 142/243/64
f 135/244/70 136/245/70 137/246/70
f 138/247/71 139/248/71 140/249/71
f 141/250/72 142/251/72 143/252/72
f 144/253/73 145/254/73 146/255/73
f 120/213/63 144/256/63 146/242/63 119/214/63
f 145/257/74 143/258/74 142/243/74 146/242/74
f 152/259/75 141/250/75 143/258/75 153/260/75
f 161/216/76 138/219/76 140/236/76 166/235/76
f 139/261/77 137/262/77 136/237/77 140/236/77
f 118/239/78 135/244/78 137/246/78 117/263/78
f 116/264/79 127/193/79 126/192/79 115/232/79
f 157/238/67 165/265/67 135/244/67 118/239/67
f 138/247/79 116/264/79 115/232/79 139/261/79
f 123/189/78 118/239/78 117/263/78 124/190/78
f 141/250/62 122/211/62 121/212/62 142/251/62
f 137/262/68 139/261/68 115/232/68 117/231/68
f 144/266/65 120/225/65 156/228/65 154/267/65
f 122/211/67 141/250/67 152/259/67 147/229/67
f 144/266/80 154/267/80 155/268/80 145/257/80
f 165/265/75 152/259/75 153/260/75 160/234/75
f 143/258/69 145/257/69 155/268/69 153/260/69
f 135/244/75 165/265/75 160/234/75 136/237/75
f 147/229/67 152/259/67 165/265/67 157/238/67
f 154/267/80 161/216/80 166/235/80 155/268/80
f 156/228/65 150/227/65 164/240/65 162/217/65
f 148/222/67 147/229/67 157/238/67 158/201/67
f 153/260/69 155/268/69 166/235/69 160/234/69
usemtl Box3.004
f 154/267/65 156/228/65 162/217/65 161/216/65
