# Blender v2.93.1 OBJ File: 'TV.blend'
# www.blender.org
mtllib TV.mtl
o Cube.001_Cube.002
v -0.752273 0.194632 0.067047
v -0.752273 1.120329 0.005222
v -0.806993 0.158929 0.016070
v -0.806993 1.148935 -0.050050
v 0.823035 0.194632 0.067047
v 0.823035 1.120329 0.005222
v 0.877755 0.158929 0.016070
v 0.877755 1.148935 -0.050050
v -0.806993 0.162477 0.069194
v -0.806993 1.152483 0.003074
v 0.877755 1.152483 0.003074
v 0.877755 0.162477 0.069194
v -0.752273 0.193662 0.052514
v -0.752273 1.119358 -0.009311
v 0.823035 1.119358 -0.009311
v 0.823035 0.193662 0.052514
vt 0.375000 0.000000
vt 0.625000 0.000000
vt 0.625000 0.250000
vt 0.375000 0.250000
vt 0.625000 0.500000
vt 0.375000 0.500000
vt 0.625000 0.750000
vt 0.375000 0.750000
vt 0.383120 0.991880
vt 0.383120 0.758120
vt 0.383120 0.758120
vt 0.383120 0.991880
vt 0.125000 0.500000
vt 0.125000 0.750000
vt 0.875000 0.500000
vt 0.875000 0.750000
vt 0.616880 0.991880
vt 0.625000 1.000000
vt 0.375000 1.000000
vt 0.616880 0.758120
vt 0.616880 0.991880
vt 0.616880 0.758120
vt 0.996725 0.994994
vt 0.990777 0.003092
vt 0.003276 0.005006
vt 0.009223 0.996909
vn -1.0000 0.0000 0.0000
vn 0.0000 -0.0666 -0.9978
vn 1.0000 0.0000 0.0000
vn 0.0000 0.9978 -0.0666
vn 0.0000 -0.9978 0.0666
vn 0.0000 0.0666 0.9978
usemtl Curtain_metal
s off
f 9/1/1 10/2/1 4/3/1 3/4/1
f 3/4/2 4/3/2 8/5/2 7/6/2
f 7/6/3 8/5/3 11/7/3 12/8/3
f 1/9/4 5/10/4 16/11/4 13/12/4
f 3/13/5 7/6/5 12/8/5 9/14/5
f 8/5/4 4/15/4 10/16/4 11/7/4
f 1/9/6 2/17/6 10/18/6 9/19/6
f 6/20/6 5/10/6 12/8/6 11/7/6
f 5/10/6 1/9/6 9/19/6 12/8/6
f 2/17/6 6/20/6 11/7/6 10/18/6
f 2/17/3 1/9/3 13/12/3 14/21/3
f 6/20/5 2/17/5 14/21/5 15/22/5
f 5/10/1 6/20/1 15/22/1 16/11/1
usemtl Screen.001
f 16/23/6 15/24/6 14/25/6 13/26/6
o Cube.002_Cube.003
v 0.001159 -0.019791 0.055785
v 0.001159 0.179470 0.055785
v 0.001159 -0.019791 0.018357
v 0.001159 0.179470 0.018357
v 0.087430 -0.019791 0.055785
v 0.087430 0.179470 0.055785
v 0.087430 -0.019791 0.018357
v 0.087430 0.179470 0.018357
v 0.001159 0.053453 0.055785
v 0.001159 0.053453 0.018357
v 0.087430 0.053453 0.018357
v 0.087430 0.053453 0.055785
v -0.290772 -0.021938 0.070089
v -0.290772 -0.021938 0.107516
v -0.290772 0.026527 0.070089
v -0.290772 0.026527 0.107516
v 0.349784 0.025096 0.070089
v 0.349784 -0.027179 0.070089
v 0.349784 -0.027179 0.107516
v 0.349784 0.025096 0.107516
vt 0.466894 0.000000
vt 0.625000 0.000000
vt 0.625000 0.250000
vt 0.466894 0.250000
vt 0.625000 0.500000
vt 0.466894 0.500000
vt 0.625000 0.750000
vt 0.466894 0.750000
vt 0.625000 1.000000
vt 0.466894 1.000000
vt 0.125000 0.500000
vt 0.375000 0.500000
vt 0.375000 0.750000
vt 0.125000 0.750000
vt 0.875000 0.500000
vt 0.875000 0.750000
vt 0.375000 1.000000
vt 0.466894 0.500000
vt 0.375000 0.500000
vt 0.375000 0.250000
vt 0.375000 0.250000
vt 0.466894 0.250000
vt 0.375000 0.000000
vt 0.466894 0.000000
vt 0.466894 1.000000
vt 0.375000 1.000000
vt 0.125000 0.750000
vt 0.125000 0.500000
vt 0.466894 0.750000
vt 0.375000 0.750000
vn -1.0000 0.0000 0.0000
vn 0.0000 0.0000 -1.0000
vn 1.0000 0.0000 0.0000
vn 0.0000 0.0000 1.0000
vn 0.0000 -1.0000 0.0000
vn 0.0000 1.0000 0.0000
vn 0.1935 0.0000 -0.9811
vn -0.1745 0.0000 -0.9847
vn 0.1745 0.0000 0.9847
vn -0.0918 0.9958 0.0000
vn 0.0074 -1.0000 0.0000
vn 0.1075 0.9942 0.0000
vn -0.1935 0.0000 0.9811
vn -0.0281 -0.9996 0.0000
usemtl Curtain_metal
s off
f 25/27/7 18/28/7 20/29/7 26/30/7
f 26/30/8 20/29/8 24/31/8 27/32/8
f 27/32/9 24/31/9 22/33/9 28/34/9
f 28/34/10 22/33/10 18/35/10 25/36/10
f 19/37/11 23/38/11 21/39/11 17/40/11
f 24/31/12 20/41/12 18/42/12 22/33/12
f 21/39/10 28/34/10 25/36/10 17/43/10
f 23/38/13 27/32/13 33/44/13 34/45/13
f 19/46/8 26/30/8 27/32/8 23/38/8
f 26/30/14 19/46/14 29/47/14 31/48/14
f 30/49/7 32/50/7 31/48/7 29/47/7
f 17/43/15 25/36/15 32/51/15 30/52/15
f 25/27/16 26/30/16 31/48/16 32/50/16
f 19/37/17 17/40/17 30/53/17 29/54/17
f 34/45/9 33/44/9 36/55/9 35/56/9
f 27/32/18 28/34/18 36/55/18 33/44/18
f 28/34/19 21/39/19 35/56/19 36/55/19
f 21/39/20 23/38/20 34/45/20 35/56/20
